<?xml version="1.0"?>
<svg width="600" height="600" xmlns="http://www.w3.org/2000/svg" xmlns:svg="http://www.w3.org/2000/svg">
 <title>Violin f hole</title>
 <metadata id="metadata3002">image/svg+xmlViolin f holeAlvinF hole / sound hole from fake Stradivarius violinAlvin</metadata>
 <g>
  <title>Layer 1</title>
  <g id="layer1" transform="rotate(23.98733901977539 300.00009155273466,299.9999694824219) " stroke="null">
   <path d="m209.046677,76.987961c0,0 -23.503616,9.518738 -22.049942,19.553482c0.502701,3.470505 6.260529,2.395477 9.190948,4.041824c2.151505,1.208656 4.51091,2.302094 6.103821,4.252609c2.283554,2.796249 4.238434,6.356476 4.432617,10.046021c0.162247,3.082474 0.426666,7.337234 -0.130371,10.010674c-0.708862,3.402519 -3.283173,7.538475 -5.42569,10.183083c-2.54187,3.13765 -7.020035,6.331711 -10.460693,8.28685c-3.93544,2.236389 -9.348999,2.088501 -13.791977,2.582809c-4.595123,0.511246 -8.966843,-1.157181 -13.29277,-2.878174c-5.094589,-2.026718 -10.389984,-4.835327 -13.694153,-9.413361c-2.581726,-3.577057 -3.383209,-8.391243 -3.89006,-12.85965c-0.663315,-5.847748 -0.024292,-11.874794 1.182983,-17.623344c1.193649,-5.683647 2.748367,-11.545067 5.914108,-16.305809c3.487335,-5.244415 8.625626,-9.173256 13.775772,-12.551903c5.031204,-3.300613 10.645767,-5.679726 16.363815,-7.301842c5.717972,-1.622131 11.702484,-2.252335 17.622452,-2.339561c6.911057,-0.101845 13.904816,0.472786 20.638992,2.123924c6.780182,1.662415 13.361481,4.387344 19.553894,7.751076c5.739105,3.11747 11.304077,6.807426 16.081512,11.395897c6.90567,6.632462 12.526367,14.711464 17.741486,22.893265c3.841522,6.026779 7.022308,12.52858 9.879913,19.139328c4.39624,10.170364 8.571686,20.567719 11.111359,31.423355c3.973969,16.986572 4.574463,34.668015 6.298615,52.071136c2.229858,22.50798 5.229553,67.667404 5.229553,67.667404l12.435516,4.451202l-9.918121,5.473267c0,0 1.597107,37.668365 2.397583,56.50238c0.716644,16.862579 -0.149353,33.883972 2.153442,50.587433c1.664825,12.07605 3.14859,24.37207 6.03833,36.187073c3.07016,12.55249 8.384705,25.33255 13.856659,37.293701c3.819214,8.348358 8.809113,16.192657 14.654388,23.104065c5.913422,6.992065 12.62738,13.496826 20.313324,18.174438c6.177643,3.75943 13.276093,5.559906 20.139832,7.584747c3.049744,0.899658 9.304962,2.014709 9.304962,2.014709c0,0 13.406494,-15.54129 14.302216,-25.334625c0.234619,-2.56543 0.41745,-5.783295 -1.302063,-7.609497c-3.486115,-3.702484 -11.336731,-1.634735 -15.094086,-5.026886c-3.807343,-3.437286 -5.899109,-8.80249 -7.29187,-13.889282c-1.380249,-5.040924 -1.789948,-10.56665 -0.846222,-15.717834c0.655518,-3.578308 2.211273,-7.079071 4.40033,-9.892181c2.482422,-3.190491 5.998535,-5.392609 9.446106,-7.334137c4.298981,-2.420929 8.922577,-4.535919 13.748566,-5.230072c4.246124,-0.610809 8.740021,-0.370026 12.820709,1.017242c5.857178,1.991119 11.623932,5.341064 15.766815,10.155304c4.301086,4.997986 6.994537,11.635895 8.393219,18.231201c1.472626,6.943542 0.691223,14.298401 -0.238922,21.345062c-0.777466,5.889923 -2.06015,11.821198 -4.42746,17.21402c-2.23645,5.094482 -5.376709,9.809387 -9.044647,13.869293c-4.074036,4.509521 -9.069275,8.04248 -14.090515,11.31134c-6.316315,4.112061 -12.750488,8.639343 -19.9935,10.326294c-6.375214,1.484863 -13.113678,0.515808 -19.581085,-0.429321c-13.8172,-2.019287 -27.982361,-6.96106 -40.686646,-13.059448c-8.75177,-4.201294 -18.087708,-10.317474 -24.393524,-15.687042c-5.379547,-4.580872 -9.897003,-8.971985 -14.366913,-14.54187c-6.087738,-7.585815 -11.551239,-16.041077 -16.298309,-24.632568c-2.503387,-4.530823 -4.443024,-9.282532 -6.119904,-14.221771c-3.422913,-10.081787 -6.172729,-21.081879 -8.3172,-31.551056c-2.232147,-10.89743 -3.157898,-21.534821 -4.801331,-32.548584c-2.266968,-15.192047 -3.764618,-30.522217 -4.725281,-45.868347c-0.509094,-8.133392 -0.547699,-24.44635 -0.547699,-24.44635l-10.948898,-3.543121l11.518661,-6.592316c0,0 -1.716095,-49.019012 -3.558441,-73.460709c-1.464996,-19.435715 -3.955872,-38.770035 -5.956726,-58.152359c-1.155762,-11.195862 -1.186722,-22.589264 -3.493774,-33.584351c-2.021408,-9.633789 -5.105957,-19.064484 -8.995392,-28.034149c-3.152481,-7.270157 -6.599457,-14.599052 -11.523819,-20.667694c-4.060165,-5.003731 -9.055222,-9.270874 -14.480865,-12.514816c-2.784775,-1.664993 -9.033646,-3.421509 -9.033646,-3.421509l-0.000015,-0.000015l-0.000015,0l0.000015,0.000015l0.000031,0.000031z" id="path3938-7" stroke-width="1px" fill="#000000" stroke="#000000"/>
  </g>
 </g>
</svg>